<svg xmlns="http://www.w3.org/2000/svg" viewBox="0 0 24 24"><defs><style>.cls-1{fill:#444;}</style></defs><g id="Слой_2" data-name="Слой 2"><path class="cls-1" d="M24,16v6H17V16a6,6,0,0,0-1.54-4H20A4,4,0,0,1,24,16ZM21,8.5V7h.5a.5.5,0,0,0,.5-.5V5.88a4.5,4.5,0,0,0-9,0V6.5a.5.5,0,0,0,.5.5H14V8.5a3.5,3.5,0,0,0,7,0Z"/><path class="cls-1" d="M3,12.14V22H0V16A4,4,0,0,1,3,12.14Zm9,0V22h3V16A4,4,0,0,0,12,12.14ZM5,16h5V12H5ZM12,5.88a4.5,4.5,0,0,0-9,0V6.5a.5.5,0,0,0,.5.5H4V8.5a3.5,3.5,0,0,0,7,0V7h.5a.5.5,0,0,0,.5-.5Z"/></g></svg>