<svg xmlns="http://www.w3.org/2000/svg" viewBox="0 0 24 24"><defs><style>.cls-1{fill:#444;}</style></defs><g id="Слой_2" data-name="Слой 2"><path class="cls-1" d="M3,3H14.5a.5.5,0,0,0,.5-.5v-1a.5.5,0,0,0-.5-.5H2A1,1,0,0,0,1,2V14.53a.5.5,0,0,0,.5.5h1a.5.5,0,0,0,.5-.5Z"/><path class="cls-1" d="M17,1.5v1a.5.5,0,0,0,.5.5h2.09L14.83,7.76a.48.48,0,0,0,0,.7l.71.71a.48.48,0,0,0,.7,0L21,4.41V6.53a.5.5,0,0,0,.5.5h1a.5.5,0,0,0,.5-.5V2a1,1,0,0,0-1-1H17.5A.5.5,0,0,0,17,1.5Z"/><path class="cls-1" d="M21,21H9.5a.5.5,0,0,0-.5.5v1a.5.5,0,0,0,.5.5H22a1,1,0,0,0,1-1V9.53a.5.5,0,0,0-.5-.5h-1a.5.5,0,0,0-.5.5Z"/><path class="cls-1" d="M9.17,15.54l-.71-.71a.48.48,0,0,0-.7,0L3,19.59V17.53a.5.5,0,0,0-.5-.5h-1a.5.5,0,0,0-.5.5V22a1,1,0,0,0,1,1H6.5a.5.5,0,0,0,.5-.5v-1a.5.5,0,0,0-.5-.5H4.41l4.76-4.76A.48.48,0,0,0,9.17,15.54Z"/></g></svg>