<svg xmlns="http://www.w3.org/2000/svg" viewBox="0 0 24 24"><defs><style>.cls-1{fill:#444;}</style></defs><g id="Слой_2" data-name="Слой 2"><path class="cls-1" d="M12.52.51A.51.51,0,0,0,12,1V2a.49.49,0,0,0,.48.49A9.54,9.54,0,1,1,5,5.6V7.5a.5.5,0,0,0,.5.5h1A.5.5,0,0,0,7,7.5V3A1,1,0,0,0,6,2H1.5a.5.5,0,0,0-.5.5v1a.5.5,0,0,0,.5.5H3.77A11.44,11.44,0,0,0,.51,12.5a11.5,11.5,0,1,0,12-12Z"/><path class="cls-1" d="M6.5,11a.5.5,0,0,0-.5.5v1a.5.5,0,0,0,.5.5H11v1.5a.5.5,0,0,0,.5.5h1a.5.5,0,0,0,.5-.5V13h1.5a.5.5,0,0,0,.5-.5v-1a.5.5,0,0,0-.5-.5H13V4.5a.5.5,0,0,0-.5-.5h-1a.5.5,0,0,0-.5.5V11Z"/></g></svg>