<svg xmlns="http://www.w3.org/2000/svg" viewBox="0 0 24 24"><defs><style>.cls-1{fill:#444;}</style></defs><g id="Слой_2" data-name="Слой 2"><path class="cls-1" d="M23.63,8.83A5,5,0,0,0,18.76,5H16V3a1,1,0,0,0-1-1H1A1,1,0,0,0,0,3V18a1,1,0,0,0,1,1H2.55a2.5,2.5,0,0,1,4.9,0h9.1a2.5,2.5,0,0,1,4.9,0H23a1,1,0,0,0,1-1V12A13.82,13.82,0,0,0,23.63,8.83ZM16,12V7h3.53a2,2,0,0,1,1.9,1.36A11.83,11.83,0,0,1,22,12Z"/><path class="cls-1" d="M5,16a3.5,3.5,0,1,0,3.5,3.5A3.5,3.5,0,0,0,5,16Zm0,5.25A1.75,1.75,0,1,1,6.75,19.5,1.75,1.75,0,0,1,5,21.25Z"/><path class="cls-1" d="M19,16a3.5,3.5,0,1,0,3.5,3.5A3.5,3.5,0,0,0,19,16Zm0,5.25a1.75,1.75,0,1,1,1.75-1.75A1.75,1.75,0,0,1,19,21.25Z"/></g></svg>