<svg xmlns="http://www.w3.org/2000/svg" viewBox="0 0 32 32"><defs><style>.cls-1{fill:#444;}</style></defs><g id="Слой_2" data-name="Слой 2"><path class="cls-1" d="M13.55,1.19A15,15,0,0,0,3.24,23.86L2.08,30.13a.32.32,0,0,0,.38.38L9,29.27A15,15,0,1,0,13.55,1.19Zm9.23,20.46-.59.48a3.88,3.88,0,0,1-3.07.83A12.91,12.91,0,0,1,8.83,13.28a3.89,3.89,0,0,1,.64-3.12l.45-.62a1.29,1.29,0,0,1,2.13,0l1.33,1.92a1.28,1.28,0,0,1-.08,1.58L12,14.59a12.81,12.81,0,0,0,5.65,5.3l1.44-1.4a1.27,1.27,0,0,1,1.58-.18l2,1.21A1.3,1.3,0,0,1,22.78,21.65Z"/></g></svg>