<svg width="215" height="111" viewBox="0 0 215 111" fill="none" xmlns="http://www.w3.org/2000/svg">
<path d="M22.08 68.832C17.728 68.832 13.856 67.84 10.464 65.856C7.136 63.872 4.544 61.056 2.688 57.408C0.896 53.76 0 49.536 0 44.736C0 39.936 0.928 35.68 2.784 31.968C4.704 28.256 7.36 25.376 10.752 23.328C14.144 21.28 18.048 20.256 22.464 20.256C24.896 20.256 27.296 20.608 29.664 21.312C32.096 21.952 34.208 22.912 36 24.192C37.152 24.96 37.952 25.728 38.4 26.496C38.912 27.2 39.168 28 39.168 28.896C39.168 29.792 38.912 30.528 38.4 31.104C37.952 31.68 37.344 31.968 36.576 31.968C36.128 31.968 35.648 31.84 35.136 31.584C34.624 31.328 34.176 31.072 33.792 30.816C33.472 30.56 33.248 30.4 33.12 30.336C31.456 29.248 29.856 28.384 28.32 27.744C26.848 27.104 25.024 26.784 22.848 26.784C18.176 26.784 14.528 28.384 11.904 31.584C9.344 34.72 8.064 39.104 8.064 44.736C8.064 50.368 9.344 54.72 11.904 57.792C14.528 60.864 18.176 62.4 22.848 62.4C25.024 62.4 26.88 62.08 28.416 61.44C30.016 60.8 31.616 59.936 33.216 58.848C33.92 58.4 34.592 58.016 35.232 57.696C35.872 57.376 36.416 57.216 36.864 57.216C37.568 57.216 38.144 57.504 38.592 58.08C39.104 58.656 39.36 59.392 39.36 60.288C39.36 61.12 39.136 61.888 38.688 62.592C38.24 63.232 37.408 63.968 36.192 64.8C34.4 66.016 32.224 67.008 29.664 67.776C27.168 68.48 24.64 68.832 22.08 68.832Z" fill="black"/>
<path d="M82.3215 20.448C83.5375 20.448 84.4655 20.8 85.1055 21.504C85.8095 22.208 86.1615 23.136 86.1615 24.288V64.896C86.1615 65.984 85.8095 66.88 85.1055 67.584C84.4655 68.288 83.5375 68.64 82.3215 68.64C81.1695 68.64 80.2415 68.32 79.5375 67.68C78.8975 66.976 78.5775 66.08 78.5775 64.992V60.192C77.1055 63.008 75.0255 65.152 72.3375 66.624C69.7135 68.096 66.7375 68.832 63.4095 68.832C57.8415 68.832 53.6495 67.296 50.8335 64.224C48.0175 61.088 46.6095 56.48 46.6095 50.4V24.288C46.6095 23.136 46.9615 22.208 47.6655 21.504C48.3695 20.8 49.3295 20.448 50.5455 20.448C51.7615 20.448 52.6895 20.8 53.3295 21.504C54.0335 22.208 54.3855 23.136 54.3855 24.288V50.208C54.3855 54.368 55.2175 57.44 56.8815 59.424C58.5455 61.344 61.1695 62.304 64.7535 62.304C68.8495 62.304 72.1455 60.992 74.6415 58.368C77.1375 55.68 78.3855 52.16 78.3855 47.808V24.288C78.3855 23.136 78.7375 22.208 79.4415 21.504C80.1455 20.8 81.1055 20.448 82.3215 20.448Z" fill="black"/>
<path d="M122.214 20.256C126.31 20.256 129.926 21.248 133.062 23.232C136.198 25.216 138.63 28.032 140.358 31.68C142.086 35.328 142.95 39.552 142.95 44.352C142.95 49.216 142.086 53.504 140.358 57.216C138.63 60.864 136.198 63.712 133.062 65.76C129.926 67.808 126.31 68.832 122.214 68.832C118.566 68.832 115.366 68.032 112.614 66.432C109.926 64.832 107.878 62.56 106.47 59.616V64.8C106.47 65.952 106.118 66.88 105.414 67.584C104.774 68.288 103.846 68.64 102.63 68.64C101.414 68.64 100.454 68.288 99.75 67.584C99.046 66.88 98.694 65.952 98.694 64.8V3.744C98.694 2.656 99.046 1.76 99.75 1.056C100.454 0.351999 101.414 0 102.63 0C103.846 0 104.774 0.351999 105.414 1.056C106.118 1.696 106.47 2.592 106.47 3.744V29.472C107.878 26.528 109.926 24.256 112.614 22.656C115.366 21.056 118.566 20.256 122.214 20.256ZM120.678 62.4C125.222 62.4 128.742 60.832 131.238 57.696C133.734 54.496 134.982 50.048 134.982 44.352C134.982 38.784 133.734 34.464 131.238 31.392C128.742 28.32 125.222 26.784 120.678 26.784C116.134 26.784 112.614 28.32 110.118 31.392C107.686 34.464 106.47 38.848 106.47 44.544C106.47 50.24 107.686 54.656 110.118 57.792C112.614 60.864 116.134 62.4 120.678 62.4Z" fill="black"/>
<path d="M156.585 68.64C155.433 68.64 154.473 68.32 153.705 67.68C153.001 66.976 152.649 66.016 152.649 64.8V24.288C152.649 23.072 153.001 22.144 153.705 21.504C154.473 20.8 155.433 20.448 156.585 20.448C157.737 20.448 158.665 20.8 159.369 21.504C160.073 22.144 160.425 23.072 160.425 24.288V64.8C160.425 66.08 160.073 67.04 159.369 67.68C158.665 68.32 157.737 68.64 156.585 68.64ZM156.585 10.368C155.049 10.368 153.801 9.92 152.841 9.024C151.881 8.128 151.401 6.944 151.401 5.472C151.401 4.064 151.881 2.912 152.841 2.016C153.801 1.12 155.049 0.672003 156.585 0.672003C158.121 0.672003 159.369 1.12 160.329 2.016C161.289 2.912 161.769 4.064 161.769 5.472C161.769 6.944 161.289 8.128 160.329 9.024C159.369 9.92 158.121 10.368 156.585 10.368Z" fill="black"/>
<path d="M210.578 20.448C211.794 20.448 212.754 20.8 213.458 21.504C214.161 22.208 214.514 23.136 214.514 24.288V100.916C214.514 102.004 214.161 102.9 213.458 103.604C212.754 104.308 211.794 104.66 210.578 104.66C209.362 104.66 208.402 104.308 207.698 103.604C207.058 102.964 206.738 102.068 206.738 100.916V59.616C205.329 62.56 203.25 64.832 200.498 66.432C197.81 68.032 194.642 68.832 190.994 68.832C186.834 68.832 183.186 67.84 180.049 65.856C176.977 63.872 174.577 61.088 172.85 57.504C171.122 53.856 170.258 49.6 170.258 44.736C170.258 39.872 171.122 35.616 172.85 31.968C174.577 28.256 177.01 25.376 180.146 23.328C183.282 21.28 186.898 20.256 190.994 20.256C194.642 20.256 197.81 21.056 200.498 22.656C203.25 24.256 205.329 26.528 206.738 29.472V24.288C206.738 23.136 207.058 22.208 207.698 21.504C208.402 20.8 209.362 20.448 210.578 20.448ZM192.53 62.4C197.074 62.4 200.562 60.864 202.994 57.792C205.49 54.656 206.738 50.24 206.738 44.544C206.738 38.848 205.49 34.464 202.994 31.392C200.562 28.32 197.074 26.784 192.53 26.784C187.986 26.784 184.434 28.384 181.874 31.584C179.378 34.72 178.13 39.104 178.13 44.736C178.13 50.368 179.378 54.72 181.874 57.792C184.434 60.864 187.986 62.4 192.53 62.4Z" fill="black"/>
<path d="M98.5667 104.34C98.0867 104.34 97.6787 104.184 97.3427 103.872C97.0307 103.536 96.8747 103.116 96.8747 102.612C96.8747 102.108 97.0307 101.7 97.3427 101.388C97.6787 101.052 98.0867 100.884 98.5667 100.884C99.0227 100.884 99.4067 101.052 99.7187 101.388C100.055 101.7 100.223 102.108 100.223 102.612C100.223 103.116 100.055 103.536 99.7187 103.872C99.4067 104.184 99.0227 104.34 98.5667 104.34ZM112.813 86.268C117.013 86.268 119.113 88.524 119.113 93.036V103.224C119.113 103.56 119.017 103.836 118.825 104.052C118.633 104.244 118.369 104.34 118.033 104.34C117.697 104.34 117.421 104.244 117.205 104.052C117.013 103.836 116.917 103.56 116.917 103.224V93.18C116.917 91.452 116.569 90.192 115.873 89.4C115.177 88.608 114.073 88.212 112.561 88.212C110.833 88.212 109.441 88.74 108.385 89.796C107.353 90.852 106.837 92.268 106.837 94.044V103.224C106.837 103.56 106.741 103.836 106.549 104.052C106.357 104.244 106.093 104.34 105.757 104.34C105.421 104.34 105.145 104.244 104.929 104.052C104.737 103.836 104.641 103.56 104.641 103.224V79.716C104.641 79.38 104.737 79.116 104.929 78.924C105.145 78.708 105.421 78.6 105.757 78.6C106.093 78.6 106.357 78.708 106.549 78.924C106.741 79.116 106.837 79.38 106.837 79.716V89.616C107.389 88.536 108.181 87.708 109.213 87.132C110.269 86.556 111.469 86.268 112.813 86.268ZM131.049 104.412C129.441 104.412 128.025 104.04 126.801 103.296C125.601 102.552 124.665 101.496 123.993 100.128C123.321 98.76 122.985 97.164 122.985 95.34C122.985 93.516 123.321 91.92 123.993 90.552C124.665 89.184 125.601 88.128 126.801 87.384C128.025 86.64 129.441 86.268 131.049 86.268C132.633 86.268 134.037 86.64 135.261 87.384C136.485 88.128 137.421 89.184 138.069 90.552C138.741 91.92 139.077 93.516 139.077 95.34C139.077 97.164 138.741 98.76 138.069 100.128C137.421 101.496 136.485 102.552 135.261 103.296C134.037 104.04 132.633 104.412 131.049 104.412ZM131.013 102.468C132.861 102.468 134.289 101.856 135.297 100.632C136.305 99.408 136.809 97.644 136.809 95.34C136.809 93.084 136.293 91.332 135.261 90.084C134.253 88.812 132.849 88.176 131.049 88.176C129.225 88.176 127.809 88.812 126.801 90.084C125.793 91.332 125.289 93.084 125.289 95.34C125.289 97.644 125.781 99.408 126.765 100.632C127.749 101.856 129.165 102.468 131.013 102.468ZM156.03 86.34C156.366 86.34 156.63 86.448 156.822 86.664C157.038 86.856 157.146 87.12 157.146 87.456V103.224C157.146 103.56 157.038 103.836 156.822 104.052C156.63 104.244 156.366 104.34 156.03 104.34C155.718 104.34 155.466 104.244 155.274 104.052C155.082 103.836 154.986 103.56 154.986 103.224V101.028C154.434 102.132 153.642 102.972 152.61 103.548C151.602 104.124 150.45 104.412 149.154 104.412C147.09 104.412 145.53 103.848 144.474 102.72C143.442 101.568 142.926 99.876 142.926 97.644V87.456C142.926 87.12 143.022 86.856 143.214 86.664C143.43 86.448 143.706 86.34 144.042 86.34C144.378 86.34 144.642 86.448 144.834 86.664C145.026 86.856 145.122 87.12 145.122 87.456V97.5C145.122 99.204 145.458 100.464 146.13 101.28C146.826 102.072 147.906 102.468 149.37 102.468C151.05 102.468 152.394 101.94 153.402 100.884C154.434 99.804 154.95 98.376 154.95 96.6V87.456C154.95 87.12 155.046 86.856 155.238 86.664C155.43 86.448 155.694 86.34 156.03 86.34ZM167.828 104.412C166.82 104.412 165.824 104.28 164.84 104.016C163.88 103.728 163.028 103.344 162.284 102.864C161.828 102.552 161.504 102.288 161.312 102.072C161.144 101.832 161.06 101.568 161.06 101.28C161.06 101.04 161.132 100.836 161.276 100.668C161.444 100.5 161.636 100.416 161.852 100.416C162.068 100.416 162.44 100.596 162.968 100.956C163.664 101.412 164.372 101.784 165.092 102.072C165.836 102.36 166.76 102.504 167.864 102.504C169.28 102.504 170.384 102.252 171.176 101.748C171.968 101.22 172.364 100.476 172.364 99.516C172.364 98.94 172.22 98.472 171.932 98.112C171.644 97.728 171.164 97.404 170.492 97.14C169.82 96.852 168.86 96.576 167.612 96.312C165.476 95.832 163.952 95.22 163.04 94.476C162.152 93.708 161.708 92.688 161.708 91.416C161.708 89.88 162.308 88.644 163.508 87.708C164.708 86.748 166.268 86.268 168.188 86.268C169.124 86.268 170.012 86.388 170.852 86.628C171.716 86.868 172.46 87.216 173.084 87.672C173.924 88.248 174.344 88.812 174.344 89.364C174.344 89.604 174.26 89.82 174.092 90.012C173.948 90.18 173.768 90.264 173.552 90.264C173.312 90.264 172.94 90.072 172.436 89.688C171.788 89.232 171.14 88.872 170.492 88.608C169.868 88.32 169.064 88.176 168.08 88.176C166.832 88.176 165.836 88.464 165.092 89.04C164.348 89.592 163.976 90.348 163.976 91.308C163.976 91.86 164.096 92.316 164.336 92.676C164.6 93.036 165.032 93.36 165.632 93.648C166.256 93.912 167.144 94.176 168.296 94.44C169.952 94.824 171.224 95.232 172.112 95.664C173 96.096 173.636 96.612 174.02 97.212C174.404 97.812 174.596 98.58 174.596 99.516C174.596 100.98 173.972 102.168 172.724 103.08C171.5 103.968 169.868 104.412 167.828 104.412ZM192.04 100.416C192.256 100.416 192.436 100.512 192.58 100.704C192.748 100.872 192.832 101.076 192.832 101.316C192.832 101.844 192.424 102.36 191.608 102.864C189.88 103.896 188.056 104.412 186.136 104.412C183.472 104.412 181.372 103.608 179.836 102C178.3 100.392 177.532 98.184 177.532 95.376C177.532 93.576 177.868 91.992 178.54 90.624C179.236 89.232 180.196 88.164 181.42 87.42C182.668 86.652 184.096 86.268 185.704 86.268C187.96 86.268 189.736 87 191.032 88.464C192.352 89.904 193.012 91.896 193.012 94.44C193.012 94.872 192.916 95.196 192.724 95.412C192.532 95.604 192.22 95.7 191.788 95.7H179.8C179.872 97.908 180.448 99.588 181.528 100.74C182.608 101.892 184.132 102.468 186.1 102.468C187.132 102.468 187.996 102.336 188.692 102.072C189.388 101.784 190.132 101.412 190.924 100.956C191.452 100.596 191.824 100.416 192.04 100.416ZM185.704 88.068C184.024 88.068 182.68 88.596 181.672 89.652C180.664 90.708 180.064 92.184 179.872 94.08H190.996C190.948 92.16 190.468 90.684 189.556 89.652C188.644 88.596 187.36 88.068 185.704 88.068Z" fill="black"/>
</svg>
